<svg width="128" height="44" viewBox="0 0 128 44" fill="none" xmlns="http://www.w3.org/2000/svg">
    <path fill-rule="evenodd" clip-rule="evenodd" d="M9.28745 4.56387L5.45949 15.4159C5.20633 16.1332 4.4157 18.2688 5.70228 18.5941L5.6875 18.636H3.28606C-0.412964 18.636 -0.297547 15.9172 0.353132 14.0724L4.18141 3.22068C4.43457 2.5031 5.2252 0.367824 3.93894 0.0421729L3.95372 0H6.35484C10.0539 0 9.93813 2.71904 9.28745 4.56387Z" transform="translate(0 14.0695)" fill="white"></path>
    <path fill-rule="evenodd" clip-rule="evenodd" d="M2.22508 4.89015C0.908944 4.89015 -0.0848422 3.79556 0.0057307 2.44508C0.0966181 1.09491 1.23727 0 2.55372 0C3.87017 0 4.86396 1.09491 4.77307 2.44508C4.68218 3.79556 3.54153 4.89015 2.22508 4.89015Z" transform="translate(5.82422 7)" fill="white"></path>
    <path fill-rule="evenodd" clip-rule="evenodd" d="M18.424 15.71C18.1708 16.4272 17.3805 18.5628 18.6668 18.8882L18.652 18.93H16.2509C12.5519 18.93 12.6673 16.2113 13.3183 14.3665L16.1078 6.45638L16.1191 6.45955C16.5827 5.14648 17.1396 3.61209 16.3899 2.6938C15.0772 1.08615 10.7869 4.13751 8.68206 6.57338L5.45918 15.71C5.20601 16.4272 4.4157 18.5628 5.70196 18.8882L5.68718 18.93H3.28606C-0.412964 18.93 -0.297546 16.2113 0.353132 14.3665L4.18109 3.51474C4.43426 2.79717 5.22488 0.661889 3.93862 0.336239L3.9534 0.294066H6.35453C9.36199 0.294066 9.84787 2.09133 9.5749 3.7551C11.5197 2.01649 13.518 0.820117 15.3942 0.307701C19.2432 -0.74345 21.4563 1.06206 21.9057 3.25029C22.202 4.69241 21.6585 6.57434 21.1808 7.92799C21.1538 8.00504 18.424 15.71 18.424 15.71Z" transform="translate(8.62109 13.7753)" fill="white"></path>
    <path fill-rule="evenodd" clip-rule="evenodd" d="M16.6623 10.8324C14.2193 15.1971 10.1077 19.5159 4.81895 19.2045C2.39141 19.0618 0.958279 18.0107 0.364838 16.5977C-0.371381 14.8461 0.118593 12.5193 0.845063 10.4598L2.65872 5.3179C2.65904 5.31727 2.65904 5.31695 2.65904 5.31664C3.08423 4.03781 3.29242 3.1376 3.1119 2.55954C2.94365 2.02144 2.42537 1.7627 1.77155 1.72497C2.94208 0.70045 4.28306 0.0472463 5.7231 0.00475634C7.21787 -0.039002 8.22895 0.712817 8.54784 1.84926C8.85856 2.95717 8.53872 4.47318 7.98019 6.0545L6.02501 11.5934C5.66021 12.6278 5.03343 14.3803 5.12746 15.7099C5.28093 17.8857 7.59903 17.6286 9.14726 16.8593C13.8706 14.5116 15.627 8.11019 15.321 4.50647C15.2131 3.23526 14.776 2.26941 14.0102 1.72497C14.5618 0.908778 15.5867 0 16.8544 0C19.0493 0 19.249 2.41495 19.2024 3.3992C19.0974 5.61248 18.0221 8.40223 16.6623 10.8324Z" transform="translate(30.9365 13.7756)" fill="white"></path>
    <path fill-rule="evenodd" clip-rule="evenodd" d="M9.28714 4.56387L5.45918 15.4159C5.20601 16.1332 4.4157 18.2688 5.70196 18.5941L5.68718 18.636H3.28606C-0.412964 18.636 -0.297546 15.9172 0.353132 14.0724L4.18141 3.22068C4.43457 2.5031 5.22488 0.367824 3.93862 0.0421729L3.9534 0H6.35453C10.0535 0 9.93813 2.71904 9.28714 4.56387Z" transform="translate(49.1738 14.0695)" fill="white"></path>
    <path fill-rule="evenodd" clip-rule="evenodd" d="M2.22508 4.89015C0.908631 4.89015 -0.0848405 3.79556 0.00573233 2.44508C0.0966197 1.09491 1.23727 0 2.55372 0C3.86986 0 4.86365 1.09491 4.77276 2.44508C4.68219 3.79556 3.54153 4.89015 2.22508 4.89015Z" transform="translate(54.998 7)" fill="white"></path>
    <path fill-rule="evenodd" clip-rule="evenodd" d="M5.85862 19.1994C4.6752 19.2686 3.43517 19.1053 2.41811 18.6252C1.00385 17.9577 0.000944483 16.7246 1.0153e-06 15.0655C-0.00188592 12.3234 2.62693 11.9064 3.35717 12.9969C2.40364 13.5809 2.15016 14.6498 2.17249 15.4476C2.2118 16.8571 3.14867 17.881 5.08152 17.9342C7.6229 18.0043 9.79005 16.2121 10.0517 14.0778C10.4149 11.1184 7.05777 9.14929 4.95383 7.15766C3.45278 5.73646 2.87003 3.70551 4.20535 1.48937C4.45663 1.0724 4.92679 0.412533 5.24568 0C5.37399 0.372263 5.64162 0.672229 6.41464 1.19289C9.93251 3.66206 15.4678 6.6259 15.1873 11.4241C14.9565 15.3725 10.9562 18.903 5.85862 19.1994Z" transform="translate(57.6924 13.7756)" fill="white"></path>
    <path fill-rule="evenodd" clip-rule="evenodd" d="M9.28683 4.56387L5.45887 15.4159C5.20602 16.1332 4.4154 18.2688 5.70166 18.5941L5.68719 18.636H3.28575C-0.412954 18.636 -0.297537 15.9172 0.353141 14.0724L4.1811 3.22068C4.43427 2.5031 5.22458 0.367824 3.93832 0.0421729L3.9531 0H6.35422C10.0536 0 9.93814 2.71904 9.28683 4.56387Z" transform="translate(73.7109 14.0695)" fill="white"></path>
    <path fill-rule="evenodd" clip-rule="evenodd" d="M2.22508 4.89015C0.908631 4.89015 -0.0848405 3.79556 0.00573233 2.44508C0.0966197 1.09491 1.23727 0 2.55372 0C3.86986 0 4.86365 1.09491 4.77276 2.44508C4.68219 3.79556 3.54153 4.89015 2.22508 4.89015Z" transform="translate(79.5352 7)" fill="white"></path>
    <path fill-rule="evenodd" clip-rule="evenodd" d="M16.3186 17.1723C13.4155 21.557 9.42024 24.0607 4.81863 23.7899C2.39141 23.6472 0.958279 22.5961 0.364838 21.1831C-0.371381 19.4315 0.118593 17.1047 0.845063 15.0453L5.01613 3.22004C5.2693 2.50247 6.05992 0.367506 4.77366 0.0421729L4.78813 0H7.18925C10.8886 0 10.7729 2.71872 10.1225 4.56355L6.0247 16.1788C5.65989 17.2132 5.03343 18.9657 5.12746 20.2953C5.25011 22.0361 7.00905 22.2613 8.14373 22.0459C9.71366 21.7482 11.5959 20.5788 13.013 18.675C14.1756 17.1127 14.9373 15.0779 14.9279 13.1319C14.9166 10.8464 13.8376 9.24791 11.8028 8.6819C12.728 7.3124 14.2596 6.71373 15.2984 6.75749C17.5149 6.85198 18.5389 8.98726 18.3901 11.3708C18.274 13.2239 17.5262 15.3478 16.3186 17.1723Z" transform="translate(83.2236 9.19019)" fill="white"></path>
    <path fill-rule="evenodd" clip-rule="evenodd" d="M5.45939 20.2953C5.20591 21.0126 4.4156 23.1481 5.70186 23.4735L5.68739 23.5153H3.28595C-0.413067 23.5153 -0.297649 20.7966 0.353343 18.9518L5.9025 3.22004C6.15598 2.50247 6.94629 0.367506 5.66003 0.0421729L5.6745 0H8.07594C11.775 0 11.6595 2.71872 11.0085 4.56355L5.45939 20.2953Z" transform="translate(101.314 9.19019)" fill="white"></path>
    <path fill-rule="evenodd" clip-rule="evenodd" d="M10.7533 10.9414C12.4618 10.1651 14.5423 9.21955 15.7523 7.81336C16.7323 6.67502 17.2738 5.35782 17.264 3.96833C17.2479 1.7595 15.6366 0.0579881 12.7269 0.00186623C6.66146 -0.115779 1.45443 5.34864 0.243004 10.7642C-0.594887 14.5096 0.705406 17.9745 4.58968 18.9568C5.21761 19.116 5.89877 19.2076 6.6097 19.2076C8.83041 19.2076 10.7918 18.7117 12.7161 17.171C14.557 15.6971 14.7318 14.2436 14.2088 13.4823C13.6273 15.2288 10.1683 17.9152 7.37045 17.1726C6.45248 16.9287 5.98031 16.2375 5.77377 15.3623C6.25863 14.0302 7.55453 12.7831 8.5057 12.0982C9.01546 11.7313 9.82992 11.3611 10.7533 10.9414ZM8.37533 5.14191C9.91976 2.81034 11.6263 1.96119 12.8744 1.78296C14.7157 1.51947 15.6829 2.8075 15.6517 4.17826C15.5809 7.34751 12.1419 8.80362 11.0091 9.28339L10.8055 9.37061L10.3778 9.55808C9.57211 9.90918 8.75082 10.2672 7.84554 10.8492C6.98959 11.3984 6.3138 11.9457 5.71712 12.8453C5.68539 11.2643 6.77962 7.55018 8.37533 5.14191Z" transform="translate(110.736 13.7881)" fill="white"></path>
</svg>