<?xml version="1.0" encoding="UTF-8"?>
<svg width="40" height="20" viewBox="0 0 40 20" fill="none" xmlns="http://www.w3.org/2000/svg">
<g clip-path="url(#clip0)">
<path d="M30.0039 16.0001L31.495 16.0001L30.7335 15.054L34.8569 12.4878L30.925 9.33789L30.0039 16.0001Z" fill="#0D1013"/>
<path d="M6.60531 9.10696C7.25638 8.66913 8.25213 8.81507 9.08192 9.39884C8.89043 8.18265 9.43937 7.12457 10.4479 6.86917C11.4436 6.62593 12.5032 7.29484 13.0649 8.40157C15.1968 8.04887 17.9671 8.13401 21.2479 8.30427C24.1458 8.45021 31.0522 8.77858 31.0522 8.77858C31.0522 8.77858 31.0395 8.80291 31.0267 8.83939C31.0395 8.83939 31.0395 8.83939 31.0395 8.83939C31.0395 8.83939 30.7351 11.324 30.302 16.0003L8.29043 16.0003C8.2703 14.8597 8.1652 14.6501 8.29042 13.1569C7.70319 12.9866 7.11595 12.6217 6.66914 12.0745C5.81382 10.9677 5.76275 9.67857 6.60531 9.10696Z" fill="#FF6170"/>
<path d="M10.5759 7.92721C10.1802 8.1218 10.078 8.74205 10.3206 9.35015C10.5759 9.9704 11.1249 10.2988 11.5206 10.1163C11.9163 9.92175 12.0185 9.3015 11.7759 8.6934C11.5334 8.1218 10.9844 7.79343 10.5759 7.92721Z" fill="#0D1013"/>
<path d="M7.25643 10.1401C6.91175 10.4076 7.02664 11.0644 7.48621 11.49C7.94579 11.9765 8.62239 12.1346 8.96707 11.8671C9.31175 11.5995 9.19685 10.9428 8.73728 10.5171C8.29047 10.0306 7.60111 9.87251 7.25643 10.1401Z" fill="#0D1013"/>
<path d="M29.2397 1.02486C28.5376 0.927561 28.0397 1.12215 27.8865 1.49917C27.7333 1.92483 28.2312 2.3505 28.6397 2.49644C29.0865 2.69103 30.044 3.59101 30.2865 3.83425C30.5419 4.02884 31.0908 4.02884 31.3334 3.83425C31.5887 3.59101 31.5887 3.16534 31.4355 2.83697C31.0908 2.02213 30.2865 1.1708 29.2397 1.02486Z" fill="#0D1013"/>
<path d="M20.3163 0.5C21.0184 0.5 21.5163 0.69459 21.6184 1.12026C21.7206 1.54592 21.1716 1.9351 20.7631 2.02023C20.3674 2.11753 19.2567 2.92021 18.9631 3.16345C18.6567 3.35804 18.1588 3.30939 17.9163 3.06616C17.661 2.82292 17.7631 2.3486 17.9674 2.06888C18.4142 1.30268 19.2695 0.548648 20.3163 0.5Z" fill="#0D1013"/>
<path d="M27.5676 3.11133C25.2697 3.11133 23.3675 4.8748 23.3675 7.11258C23.3675 9.35037 25.2697 11.1138 27.5676 11.1138C29.8654 11.1138 31.7676 9.35037 31.7676 7.11258C31.7676 4.8748 29.8782 3.11133 27.5676 3.11133Z" fill="#6F578E"/>
<path d="M21.2741 2.78223C18.9762 2.78223 17.0741 4.59435 17.0741 6.78348C17.0741 8.97262 18.9762 10.7847 21.2741 10.7847C23.572 10.7847 25.4741 8.97262 25.4741 6.78348C25.4741 4.5457 23.572 2.78223 21.2741 2.78223Z" fill="#6F578E"/>
<path d="M27.567 4.5459C26.0606 4.5459 24.8606 5.68911 24.8606 7.11205C24.8606 8.53499 26.0606 9.67821 27.567 9.67821C29.0734 9.67821 30.2734 8.53499 30.2734 7.11205C30.2734 5.68911 29.0734 4.5459 27.567 4.5459Z" fill="white"/>
<path d="M27.5673 5.91992C26.8652 5.91992 26.3162 6.44288 26.3162 7.11179C26.3162 7.78069 26.8652 8.30365 27.5673 8.30365C28.2694 8.30365 28.8184 7.78069 28.8184 7.11179C28.8184 6.44288 28.2694 5.91992 27.5673 5.91992Z" fill="#0D1013"/>
<path d="M21.2732 4.20508C19.7668 4.20508 18.5668 5.34829 18.5668 6.77123C18.5668 8.19417 19.7668 9.33739 21.2732 9.33739C22.7668 9.34955 23.9668 8.20633 23.9668 6.77123C23.9668 5.34829 22.7668 4.20508 21.2732 4.20508Z" fill="white"/>
<path d="M21.2736 5.54395C20.5714 5.54395 20.0225 6.06691 20.0225 6.73581C20.0225 7.40471 20.5714 7.92767 21.2736 7.92767C21.9757 7.92767 22.5246 7.40471 22.5246 6.73581C22.5629 6.06691 21.9629 5.54395 21.2736 5.54395Z" fill="#0D1013"/>
<path d="M7.39252 14.8321C7.3008 16.1655 6.68602 17.5567 6.1706 18.0468C5.73163 17.4257 4.43764 15.7724 4.52937 14.439C4.64402 12.7722 7.50718 13.1653 7.39252 14.8321Z" fill="#5B427B"/>
<path d="M0.754667 14.9186C0.513559 13.2547 6.39543 12.5595 6.63654 14.2234C6.70516 14.6969 6.17659 14.8418 5.85689 15.3924C5.27792 16.3895 4.66307 17.7756 4.41082 18.1801C4.0416 17.8584 3.19801 16.6829 2.23731 15.8204C1.76105 15.3928 0.818597 15.3598 0.754667 14.9186Z" fill="#5B427B"/>
<path d="M3.17435 14.5375C3.62125 15.7931 2.80554 17.7529 2.55073 18.4742C1.9235 18.1492 0.975134 16.982 0.528227 15.7264C-0.030408 14.1569 2.61571 12.968 3.17435 14.5375Z" fill="#5B427B"/>
<path d="M40.2579 15.7101C39.8126 17.0216 38.857 18.2515 38.2377 18.6049C37.9894 17.8654 37.2099 15.8633 37.6551 14.5517C38.2117 12.9123 40.8144 14.0706 40.2579 15.7101Z" fill="#5B427B"/>
<path d="M33.9558 14.0222C34.1749 12.2906 39.9257 13.1653 39.7067 14.8969C39.6443 15.3897 39.1054 15.3937 38.655 15.8599C37.8394 16.7043 36.8853 17.9289 36.5379 18.2669C36.2751 17.8458 35.793 16.4426 35.116 15.3218C34.7804 14.7662 33.8977 14.4813 33.9558 14.0222Z" fill="#5B427B"/>
<path d="M36.347 14.2884C36.4321 15.6658 35.1336 17.4117 34.6987 18.0665C34.1927 17.5733 33.6094 16.1506 33.5242 14.7732C33.4177 13.0514 36.2405 12.5666 36.347 14.2884Z" fill="#5B427B"/>
</g>
<defs>
<clipPath id="clip0">
<rect width="40" height="20" fill="white" transform="matrix(-1 8.74228e-08 8.74228e-08 1 40 0)"/>
</clipPath>
</defs>
</svg>
