<svg width="99" height="15" viewBox="0 0 99 15" fill="none" xmlns="http://www.w3.org/2000/svg" style="color: rgb(255, 255, 255);"><path d="M12.2166 1.92463C12.2166 1.39902 12.3594 0.966184 12.6443 0.625574C12.9298 0.285141 13.3478 0.114925 13.8985 0.114925C14.4495 0.114925 14.8724 0.285141 15.1674 0.625574C15.4626 0.966184 15.6101 1.39902 15.6101 1.92463V6.50676C15.6101 7.71287 15.4821 8.80272 15.2265 9.77559C14.9707 10.7486 14.5575 11.6387 13.9871 12.4463C13.4168 13.2538 12.6101 13.8814 11.5675 14.3289C10.5249 14.7763 9.28547 14.9999 7.84932 14.9999C5.07549 14.9999 3.07392 14.2267 1.84406 12.6798C0.614567 11.1327 0 9.09454 0 6.56516V1.92463C0 1.39902 0.152292 0.966184 0.457235 0.625574C0.762538 0.285141 1.19025 0.114925 1.74109 0.114925C2.31156 0.114925 2.75403 0.285141 3.06887 0.625574C3.38372 0.966184 3.54105 1.39902 3.54105 1.92463V6.71116C3.54105 10.155 4.98674 11.8769 7.87866 11.8769C10.7706 11.8769 12.2166 10.1356 12.2166 6.65258V1.92463Z" fill="currentColor" fill-rule="evenodd" clip-rule="evenodd"></path><path d="M76.8267 6.57518C77.4641 6.25736 77.7831 5.74582 77.7831 5.04074C77.7831 3.79261 76.5509 3.16854 74.0871 3.16854C73.6392 3.16854 71.3004 3.20308 70.4387 3.27252V6.98274C70.9732 7.02885 73.2426 7.052 73.8802 7.052C75.2071 7.052 76.1893 6.893 76.8267 6.57518ZM67.0295 1.97559C67.0295 1.10599 67.5446 0.579855 68.5742 0.396819C69.6594 0.198471 72.4406 0.0992971 74.1142 0.0992971C78.8773 0.0992971 81.2589 1.6859 81.2589 4.85894C81.2589 5.94202 80.9464 6.85738 80.3209 7.60484C79.6958 8.35229 78.8282 8.9322 77.5756 9.22563L80.5858 12.1927C81.1262 12.8005 81.359 13.8366 80.1767 14.4085C79.2077 14.8773 78.14 14.5472 77.3596 13.6343L73.7925 9.68696C73.5536 9.71758 70.8815 9.70245 70.3846 9.64138V13.1997C70.3846 13.6115 70.2379 13.9472 69.9436 14.2064C69.6493 14.4657 69.3393 14.5955 68.8243 14.5955C68.2911 14.5955 67.7422 14.4657 67.4573 14.2064C67.1721 13.9472 67.0295 13.6115 67.0295 13.1997V1.97559Z" fill="currentColor" fill-rule="evenodd" clip-rule="evenodd"></path><path d="M95.6065 1.92463C95.6065 1.39902 95.7493 0.966184 96.0342 0.625574C96.3197 0.285141 96.7377 0.114925 97.2884 0.114925C97.8394 0.114925 98.2623 0.285141 98.5573 0.625574C98.8525 0.966184 99 1.39902 99 1.92463V6.50676C99 7.71287 98.8722 8.80272 98.6165 9.77559C98.3606 10.7486 97.9474 11.6387 97.377 12.4463C96.8067 13.2538 96 13.8814 94.9574 14.3289C93.9148 14.7763 92.6754 14.9999 91.2392 14.9999C88.4654 14.9999 86.4638 14.2267 85.234 12.6798C84.0045 11.1327 83.3899 9.09454 83.3899 6.56516V1.92463C83.3899 1.39902 83.5422 0.966184 83.8471 0.625574C84.1524 0.285141 84.5801 0.114925 85.131 0.114925C85.7015 0.114925 86.1439 0.285141 86.4588 0.625574C86.7736 0.966184 86.9309 1.39902 86.9309 1.92463V6.71116C86.9309 10.155 88.3766 11.8769 91.2686 11.8769C94.1605 11.8769 95.6065 10.1356 95.6065 6.65258V1.92463Z" fill="currentColor" fill-rule="evenodd" clip-rule="evenodd"></path><path d="M25.7736 14.9999C23.1526 14.9999 21.1024 14.3578 19.622 13.0737C18.1415 11.7896 17.4011 9.98972 17.4011 7.67435C17.4011 5.33922 18.1719 3.49568 19.7127 2.14321C21.254 0.790742 23.359 0.114685 26.0285 0.114685C28.0914 0.114685 29.6566 0.386924 30.7243 0.931758C31.7677 1.45718 32.0712 2.10938 31.6343 2.88746C31.2219 3.58809 30.4212 3.8849 29.232 3.59326C27.9944 3.30143 26.6122 3.06249 25.7874 3.06249C24.3797 3.06249 23.2759 3.47129 22.4746 4.28836C21.6738 5.10562 21.2736 6.2341 21.2736 7.67435C21.2736 9.03626 21.6919 10.1065 22.5295 10.8846C23.3666 11.663 24.4649 12.0523 25.8238 12.0523C26.7946 12.0523 28.3098 11.7798 29.6685 11.2348C30.8336 10.7874 31.6588 10.8846 32.1439 11.5266C32.7023 12.2661 32.4596 12.9762 31.4161 13.6576C30.0084 14.5524 28.1278 14.9999 25.7736 14.9999Z" fill="currentColor" fill-rule="evenodd" clip-rule="evenodd"></path><path d="M54.5035 0.481626C54.8477 0.16078 55.3152 0 55.9051 0C56.4954 0 56.9677 0.16078 57.3218 0.481626C57.6757 0.802829 57.8529 1.23567 57.8529 1.78068C57.8529 2.34492 57.6757 2.78239 57.3218 3.0938C56.9677 3.40521 56.4954 3.56101 55.9051 3.56101C55.3152 3.56101 54.8477 3.41002 54.5035 3.1084C54.1594 2.80679 53.9873 2.36415 53.9873 1.78068C53.9873 1.23567 54.1594 0.802829 54.5035 0.481626Z" fill="currentColor" fill-rule="evenodd" clip-rule="evenodd"></path><path d="M50.9073 0.596311C50.6123 0.275108 50.1993 0.114685 49.6679 0.114685C49.1369 0.114685 48.7286 0.275108 48.4435 0.596311C48.1581 0.917158 48.0154 1.32133 48.0154 1.80759V5.76227H38.0347V1.80759C38.0347 1.32133 37.8873 0.917158 37.5919 0.596311C37.297 0.275108 36.8839 0.114685 36.3525 0.114685C35.8214 0.114685 35.4132 0.275108 35.128 0.596311C34.8427 0.917158 34.7 1.32133 34.7 1.80759V13.0152C34.7 13.5018 34.8427 13.9056 35.128 14.2264C35.4132 14.5476 35.8214 14.7081 36.3525 14.7081C36.8839 14.7081 37.297 14.5476 37.5919 14.2264C37.8873 13.9056 38.0347 13.5018 38.0347 13.0152V9.06047H48.0154V13.0152C48.0154 13.5018 48.1581 13.9056 48.4435 14.2264C48.7286 14.5476 49.1369 14.7081 49.6679 14.7081C50.1993 14.7081 50.6123 14.5476 50.9073 14.2264C51.2027 13.9056 51.3501 13.5018 51.3501 13.0152V1.80759C51.3501 1.32133 51.2027 0.917158 50.9073 0.596311Z" fill="currentColor" fill-rule="evenodd" clip-rule="evenodd"></path><path d="M54.2529 6.94699C54.2529 6.46056 54.3957 6.05656 54.681 5.73572C54.9661 5.41451 55.3742 5.25409 55.9055 5.25409C56.4369 5.25409 56.8498 5.41451 57.1449 5.73572C57.4401 6.05656 57.5875 6.46056 57.5875 6.94699V13.015C57.5875 13.5016 57.4401 13.9054 57.1449 14.2262C56.8498 14.5474 56.4369 14.7079 55.9055 14.7079C55.3742 14.7079 54.9661 14.5474 54.681 14.2262C54.3957 13.9054 54.2529 13.5016 54.2529 13.015V6.94699Z" fill="currentColor" fill-rule="evenodd" clip-rule="evenodd"></path><path d="M60.7885 11.2487C61.1526 10.85 61.6491 10.6503 62.2788 10.6503C62.9083 10.6503 63.41 10.85 63.7837 11.2487C64.1574 11.6477 64.3445 12.1293 64.3445 12.6936C64.3445 13.2774 64.1625 13.7587 63.7983 14.1381C63.4347 14.5175 62.9279 14.7073 62.2788 14.7073C61.6295 14.7073 61.128 14.5175 60.7737 14.1381C60.4196 13.7587 60.2427 13.2774 60.2427 12.6936C60.2427 12.1293 60.4247 11.6477 60.7885 11.2487Z" fill="currentColor" fill-rule="evenodd" clip-rule="evenodd"></path></svg>