<svg width="83" height="40" viewBox="0 0 83 40" fill="none" xmlns="http://www.w3.org/2000/svg"><path d="M22.782 38.4657L2.962 40L0 10.2795L1.57533 10.1563C2.44333 10.0888 3.07867 9.29278 2.98867 8.38688L2.836 6.85586C2.74533 5.94929 3.41933 5.15001 4.33333 5.07981L15.2667 4.23616C16.18 4.16464 17.0027 4.84738 17.0927 5.75394L17.2447 7.2843L17.4093 8.93254L23.0127 8.49879L43.7353 8.81467L45.8047 33.6826L42.0333 36.9777L22.782 38.4657Z" fill="#C6C5C5"/><path d="M30.4306 0L5.71657 12.7707L3.06323 40L27.6759 38.0809L41.5152 37.0015L50.3626 36.3115L53.0132 9.0835L30.4306 0Z" fill="#066BC6"/><path d="M18.8793 28.9411L16.0613 24.3799H13.7687V28.9411H11.0173V16.1042H17.0627C19.7553 16.1042 21.4027 17.8565 21.4027 20.2424 21.4027 22.5131 20.2473 23.7256 18.8527 24.0534L22.0373 28.9411H18.8793zM18.594 20.2417C18.594 19.1643 17.76 18.51 16.6567 18.51H13.7693V21.9734H16.6567C17.76 21.9741 18.594 21.3205 18.594 20.2417zM23.7561 28.9411V16.1042H32.9021V18.5107H26.5074V21.2238H32.2101V23.6296H26.5074V26.536H32.9021V28.9418H23.7561V28.9411zM34.4334 22.5323C34.4334 18.4716 37.5333 15.8923 41.312 15.8923 44.0053 15.8923 45.6913 17.2393 46.66 18.761L44.3727 19.9921C43.7927 19.0875 42.6887 18.3173 41.312 18.3173 38.9667 18.3173 37.262 20.1073 37.262 22.5323 37.262 24.9573 38.9673 26.7472 41.312 26.7472 42.4553 26.7472 43.5414 26.246 44.0634 25.7652V24.3951H40.6533V21.9754H46.814V26.7671C45.4967 28.2293 43.6567 29.1921 41.312 29.1921 37.534 29.1915 34.4334 26.5744 34.4334 22.5323z" fill="#fff"/><path d="M53.5186 27.5936C53.5186 26.7479 54.2359 26.0347 55.0879 26.0347 55.9419 26.0347 56.6572 26.7466 56.6572 27.5936 56.6572 28.4405 55.9419 29.1524 55.0879 29.1524 54.2359 29.1531 53.5186 28.4412 53.5186 27.5936zM66.71 28.9411L63.6153 24.3799H61.6V28.9411H58.8486V16.1042H64.894C67.5866 16.1042 69.2346 17.8565 69.2346 20.2424 69.2346 22.5131 67.8006 23.7256 66.406 24.0534L69.868 28.9411H66.71zM66.426 20.2417C66.426 19.1643 65.5913 18.51 64.4873 18.51H61.6V21.9734H64.4866C65.5913 21.9741 66.426 21.3205 66.426 20.2417zM71.3093 23.8216V16.1042H74.1V23.7249C74.1 25.5162 74.868 26.7472 76.864 26.7472 78.8587 26.7472 79.6073 25.5162 79.6073 23.7249V16.1042H82.4187V23.8024C82.4187 26.9976 80.7953 29.1729 76.864 29.1729 72.9293 29.1716 71.3093 26.9784 71.3093 23.8216z" fill="#000"/></svg>